<svg width="20" height="21" viewBox="0 0 20 21" fill="none" xmlns="http://www.w3.org/2000/svg">
<path d="M15.1251 8.12055L14.8751 15.6874C14.8538 16.3355 14.5808 16.9497 14.114 17.3998C13.6473 17.8499 13.0235 18.1004 12.3751 18.0981H7.62508C6.97709 18.1004 6.35367 17.8503 5.88698 17.4007C5.42029 16.9512 5.14701 16.3375 5.12508 15.6899L4.87508 8.12055C4.86961 7.95479 4.93021 7.79365 5.04355 7.67257C5.15689 7.55149 5.31369 7.4804 5.47945 7.47493C5.64521 7.46946 5.80636 7.53006 5.92744 7.6434C6.04851 7.75674 6.11961 7.91354 6.12508 8.0793L6.37508 15.6481C6.38753 15.9712 6.5247 16.2769 6.75778 16.501C6.99087 16.7251 7.30173 16.8502 7.62508 16.8499H12.3751C12.6988 16.8501 13.0101 16.7247 13.2432 16.5001C13.4764 16.2754 13.6133 15.9691 13.6251 15.6456L13.8751 8.0793C13.8805 7.91354 13.9516 7.75674 14.0727 7.6434C14.1938 7.53006 14.3549 7.46946 14.5207 7.47493C14.6865 7.4804 14.8433 7.55149 14.9566 7.67257C15.0699 7.79365 15.1305 7.95479 15.1251 8.12055ZM15.952 5.60243C15.952 5.76819 15.8861 5.92716 15.7689 6.04437C15.6517 6.16158 15.4927 6.22743 15.327 6.22743H4.67383C4.50807 6.22743 4.3491 6.16158 4.23189 6.04437C4.11468 5.92716 4.04883 5.76819 4.04883 5.60243C4.04883 5.43667 4.11468 5.2777 4.23189 5.16049C4.3491 5.04328 4.50807 4.97743 4.67383 4.97743H6.61133C6.80936 4.97796 7.0005 4.9048 7.14757 4.77218C7.29463 4.63955 7.38709 4.45696 7.40695 4.25993C7.45307 3.79773 7.66962 3.36926 8.01439 3.058C8.35916 2.74673 8.80746 2.57497 9.27195 2.57618H10.7282C11.1927 2.57497 11.641 2.74673 11.9858 3.058C12.3305 3.36926 12.5471 3.79773 12.5932 4.25993C12.6131 4.45696 12.7055 4.63955 12.8526 4.77218C12.9997 4.9048 13.1908 4.97796 13.3888 4.97743H15.3263C15.4921 4.97743 15.6511 5.04328 15.7683 5.16049C15.8855 5.2777 15.952 5.43667 15.952 5.60243ZM8.49195 4.97743H11.5095C11.4273 4.78977 11.3736 4.59092 11.3501 4.38743C11.3346 4.23337 11.2625 4.09054 11.1477 3.98662C11.0329 3.8827 10.8837 3.82508 10.7288 3.82493H9.27258C9.11774 3.82508 8.96848 3.8827 8.8537 3.98662C8.73893 4.09054 8.66681 4.23337 8.65133 4.38743C8.6276 4.59095 8.5743 4.7898 8.49195 4.97743ZM9.12133 14.4468V9.12493C9.12133 8.95917 9.05548 8.8002 8.93827 8.68299C8.82106 8.56578 8.66209 8.49993 8.49633 8.49993C8.33057 8.49993 8.1716 8.56578 8.05439 8.68299C7.93718 8.8002 7.87133 8.95917 7.87133 9.12493V14.4493C7.87133 14.6151 7.93718 14.774 8.05439 14.8912C8.1716 15.0085 8.33057 15.0743 8.49633 15.0743C8.66209 15.0743 8.82106 15.0085 8.93827 14.8912C9.05548 14.774 9.12133 14.6151 9.12133 14.4493V14.4468ZM12.1301 14.4468V9.12493C12.1301 8.95917 12.0642 8.8002 11.947 8.68299C11.8298 8.56578 11.6708 8.49993 11.5051 8.49993C11.3393 8.49993 11.1803 8.56578 11.0631 8.68299C10.9459 8.8002 10.8801 8.95917 10.8801 9.12493V14.4493C10.8801 14.6151 10.9459 14.774 11.0631 14.8912C11.1803 15.0085 11.3393 15.0743 11.5051 15.0743C11.6708 15.0743 11.8298 15.0085 11.947 14.8912C12.0642 14.774 12.1301 14.6151 12.1301 14.4493V14.4468Z" fill="#7F27FF" stroke="#F4F3FE" stroke-width="0.2"/>
</svg>
