<svg width="20" height="21" viewBox="0 0 20 21" fill="none" xmlns="http://www.w3.org/2000/svg">
<path d="M16.1664 6.61655L13.8831 4.33321C13.5851 4.05329 13.1946 3.89268 12.7859 3.88192C12.3772 3.87117 11.9787 4.01102 11.6664 4.27488L4.16643 11.7749C3.89706 12.0465 3.72935 12.4026 3.69143 12.7832L3.33309 16.2582C3.32187 16.3803 3.3377 16.5033 3.37948 16.6185C3.42125 16.7338 3.48793 16.8384 3.57476 16.9249C3.65263 17.0021 3.74497 17.0632 3.8465 17.1047C3.94803 17.1462 4.05675 17.1672 4.16643 17.1665H4.24143L7.71643 16.8499C8.09709 16.812 8.45312 16.6442 8.72476 16.3749L16.2248 8.87488C16.5159 8.56735 16.6732 8.15697 16.6622 7.73366C16.6513 7.31035 16.473 6.90864 16.1664 6.61655ZM7.56643 15.1832L5.06643 15.4165L5.29143 12.9165L9.99976 8.26655L12.2498 10.5165L7.56643 15.1832ZM13.3331 9.39988L11.0998 7.16655L12.7248 5.49988L14.9998 7.77488L13.3331 9.39988Z" fill="#7F27FF" stroke="#F4F3FE" stroke-width="0.4"/>
</svg>
